<mxfile host="Electron" agent="Mozilla/5.0 (Windows NT 10.0; Win64; x64) AppleWebKit/537.36 (KHTML, like Gecko) draw.io/27.0.2 Chrome/134.0.6998.205 Electron/35.3.0 Safari/537.36" version="27.0.2">
  <diagram name="Page-1" id="oux8k6bwoD5EHhF63y2L">
    <mxGraphModel dx="2316" dy="1391" grid="1" gridSize="10" guides="1" tooltips="1" connect="1" arrows="1" fold="1" page="1" pageScale="1" pageWidth="850" pageHeight="1100" math="0" shadow="0">
      <root>
        <mxCell id="0" />
        <mxCell id="1" parent="0" />
        <mxCell id="d1Pyevz_ncs2XS0bNi1m-14" value="Client" style="whiteSpace=wrap;html=1;align=center;" parent="1" vertex="1">
          <mxGeometry x="40" y="465" width="100" height="40" as="geometry" />
        </mxCell>
        <mxCell id="d1Pyevz_ncs2XS0bNi1m-16" value="List" style="swimlane;fontStyle=0;childLayout=stackLayout;horizontal=1;startSize=26;horizontalStack=0;resizeParent=1;resizeParentMax=0;resizeLast=0;collapsible=1;marginBottom=0;align=center;fontSize=14;" parent="1" vertex="1">
          <mxGeometry x="345" y="457" width="160" height="56" as="geometry" />
        </mxCell>
        <mxCell id="d1Pyevz_ncs2XS0bNi1m-17" value="Commission" style="text;strokeColor=none;fillColor=none;spacingLeft=4;spacingRight=4;overflow=hidden;rotatable=0;points=[[0,0.5],[1,0.5]];portConstraint=eastwest;fontSize=12;whiteSpace=wrap;html=1;" parent="d1Pyevz_ncs2XS0bNi1m-16" vertex="1">
          <mxGeometry y="26" width="160" height="30" as="geometry" />
        </mxCell>
        <mxCell id="d1Pyevz_ncs2XS0bNi1m-20" value="Artist" style="whiteSpace=wrap;html=1;align=center;" parent="1" vertex="1">
          <mxGeometry x="700" y="465" width="100" height="40" as="geometry" />
        </mxCell>
        <mxCell id="d1Pyevz_ncs2XS0bNi1m-21" value="Admin" style="whiteSpace=wrap;html=1;align=center;" parent="1" vertex="1">
          <mxGeometry x="375" y="685" width="100" height="40" as="geometry" />
        </mxCell>
        <mxCell id="d1Pyevz_ncs2XS0bNi1m-22" value="Browse&amp;nbsp; Items" style="text;strokeColor=none;fillColor=none;spacingLeft=4;spacingRight=4;overflow=hidden;rotatable=0;points=[[0,0.5],[1,0.5]];portConstraint=eastwest;fontSize=12;whiteSpace=wrap;html=1;" parent="1" vertex="1">
          <mxGeometry x="190" y="375" width="90" height="30" as="geometry" />
        </mxCell>
        <mxCell id="d1Pyevz_ncs2XS0bNi1m-23" value="Add to Basket" style="text;strokeColor=none;fillColor=none;spacingLeft=4;spacingRight=4;overflow=hidden;rotatable=0;points=[[0,0.5],[1,0.5]];portConstraint=eastwest;fontSize=12;whiteSpace=wrap;html=1;" parent="1" vertex="1">
          <mxGeometry x="190" y="415" width="90" height="30" as="geometry" />
        </mxCell>
        <mxCell id="d1Pyevz_ncs2XS0bNi1m-24" value="Track Commission" style="text;strokeColor=none;fillColor=none;spacingLeft=4;spacingRight=4;overflow=hidden;rotatable=0;points=[[0,0.5],[1,0.5]];portConstraint=eastwest;fontSize=12;whiteSpace=wrap;html=1;" parent="1" vertex="1">
          <mxGeometry x="180" y="470" width="110" height="30" as="geometry" />
        </mxCell>
        <mxCell id="d1Pyevz_ncs2XS0bNi1m-25" value="Chat" style="text;strokeColor=none;fillColor=none;spacingLeft=4;spacingRight=4;overflow=hidden;rotatable=0;points=[[0,0.5],[1,0.5]];portConstraint=eastwest;fontSize=12;whiteSpace=wrap;html=1;" parent="1" vertex="1">
          <mxGeometry x="215" y="535" width="40" height="30" as="geometry" />
        </mxCell>
        <mxCell id="d1Pyevz_ncs2XS0bNi1m-26" value="Commission History" style="text;strokeColor=none;fillColor=none;spacingLeft=4;spacingRight=4;overflow=hidden;rotatable=0;points=[[0,0.5],[1,0.5]];portConstraint=eastwest;fontSize=12;whiteSpace=wrap;html=1;" parent="1" vertex="1">
          <mxGeometry x="170" y="565" width="130" height="30" as="geometry" />
        </mxCell>
        <mxCell id="d1Pyevz_ncs2XS0bNi1m-27" value="Daily Sales" style="text;strokeColor=none;fillColor=none;spacingLeft=4;spacingRight=4;overflow=hidden;rotatable=0;points=[[0,0.5],[1,0.5]];portConstraint=eastwest;fontSize=12;whiteSpace=wrap;html=1;" parent="1" vertex="1">
          <mxGeometry x="560" y="415" width="80" height="30" as="geometry" />
        </mxCell>
        <mxCell id="d1Pyevz_ncs2XS0bNi1m-28" value="Manage/Update Commission Types" style="text;strokeColor=none;fillColor=none;spacingLeft=4;spacingRight=4;overflow=hidden;rotatable=0;points=[[0,0.5],[1,0.5]];portConstraint=eastwest;fontSize=12;whiteSpace=wrap;html=1;" parent="1" vertex="1">
          <mxGeometry x="550" y="455" width="100" height="60" as="geometry" />
        </mxCell>
        <mxCell id="d1Pyevz_ncs2XS0bNi1m-30" value="Feedback" style="text;strokeColor=none;fillColor=none;spacingLeft=4;spacingRight=4;overflow=hidden;rotatable=0;points=[[0,0.5],[1,0.5]];portConstraint=eastwest;fontSize=12;whiteSpace=wrap;html=1;" parent="1" vertex="1">
          <mxGeometry x="565" y="525" width="70" height="30" as="geometry" />
        </mxCell>
        <mxCell id="d1Pyevz_ncs2XS0bNi1m-31" value="Commision Sales Report per Artist" style="text;strokeColor=none;fillColor=none;spacingLeft=4;spacingRight=4;overflow=hidden;rotatable=0;points=[[0,0.5],[1,0.5]];portConstraint=eastwest;fontSize=12;whiteSpace=wrap;html=1;" parent="1" vertex="1">
          <mxGeometry x="360" y="585" width="85" height="50" as="geometry" />
        </mxCell>
        <mxCell id="d1Pyevz_ncs2XS0bNi1m-32" value="Monitor Artists" style="text;strokeColor=none;fillColor=none;spacingLeft=4;spacingRight=4;overflow=hidden;rotatable=0;points=[[0,0.5],[1,0.5]];portConstraint=eastwest;fontSize=12;whiteSpace=wrap;html=1;" parent="1" vertex="1">
          <mxGeometry x="445" y="590" width="50" height="40" as="geometry" />
        </mxCell>
        <mxCell id="d1Pyevz_ncs2XS0bNi1m-35" value="" style="endArrow=none;html=1;rounded=0;exitX=0.5;exitY=0;exitDx=0;exitDy=0;entryX=0.25;entryY=0;entryDx=0;entryDy=0;" parent="1" source="d1Pyevz_ncs2XS0bNi1m-14" target="d1Pyevz_ncs2XS0bNi1m-16" edge="1">
          <mxGeometry relative="1" as="geometry">
            <mxPoint x="145" y="265" as="sourcePoint" />
            <mxPoint x="380" y="405" as="targetPoint" />
            <Array as="points">
              <mxPoint x="90" y="405" />
              <mxPoint x="385" y="405" />
            </Array>
          </mxGeometry>
        </mxCell>
        <mxCell id="d1Pyevz_ncs2XS0bNi1m-36" value="" style="endArrow=none;html=1;rounded=0;exitX=0.75;exitY=0;exitDx=0;exitDy=0;entryX=0.117;entryY=-0.013;entryDx=0;entryDy=0;entryPerimeter=0;" parent="1" source="d1Pyevz_ncs2XS0bNi1m-14" target="d1Pyevz_ncs2XS0bNi1m-16" edge="1">
          <mxGeometry relative="1" as="geometry">
            <mxPoint x="310" y="475" as="sourcePoint" />
            <mxPoint x="470" y="475" as="targetPoint" />
            <Array as="points">
              <mxPoint x="115" y="445" />
              <mxPoint x="364" y="445" />
            </Array>
          </mxGeometry>
        </mxCell>
        <mxCell id="d1Pyevz_ncs2XS0bNi1m-37" value="" style="endArrow=none;html=1;rounded=0;exitX=1;exitY=0.5;exitDx=0;exitDy=0;" parent="1" source="d1Pyevz_ncs2XS0bNi1m-14" target="d1Pyevz_ncs2XS0bNi1m-24" edge="1">
          <mxGeometry relative="1" as="geometry">
            <mxPoint x="300" y="465" as="sourcePoint" />
            <mxPoint x="460" y="465" as="targetPoint" />
          </mxGeometry>
        </mxCell>
        <mxCell id="d1Pyevz_ncs2XS0bNi1m-38" value="" style="endArrow=none;html=1;rounded=0;entryX=-0.013;entryY=0.052;entryDx=0;entryDy=0;entryPerimeter=0;" parent="1" target="d1Pyevz_ncs2XS0bNi1m-17" edge="1">
          <mxGeometry relative="1" as="geometry">
            <mxPoint x="290" y="485" as="sourcePoint" />
            <mxPoint x="330" y="485" as="targetPoint" />
          </mxGeometry>
        </mxCell>
        <mxCell id="d1Pyevz_ncs2XS0bNi1m-39" value="" style="endArrow=none;html=1;rounded=0;exitX=0.75;exitY=1;exitDx=0;exitDy=0;entryX=0.122;entryY=1.024;entryDx=0;entryDy=0;entryPerimeter=0;" parent="1" source="d1Pyevz_ncs2XS0bNi1m-14" target="d1Pyevz_ncs2XS0bNi1m-17" edge="1">
          <mxGeometry relative="1" as="geometry">
            <mxPoint x="310" y="465" as="sourcePoint" />
            <mxPoint x="470" y="465" as="targetPoint" />
            <Array as="points">
              <mxPoint x="115" y="535" />
              <mxPoint x="365" y="535" />
            </Array>
          </mxGeometry>
        </mxCell>
        <mxCell id="d1Pyevz_ncs2XS0bNi1m-40" value="" style="endArrow=none;html=1;rounded=0;exitX=0.5;exitY=1;exitDx=0;exitDy=0;entryX=0.247;entryY=1.005;entryDx=0;entryDy=0;entryPerimeter=0;" parent="1" source="d1Pyevz_ncs2XS0bNi1m-14" target="d1Pyevz_ncs2XS0bNi1m-17" edge="1">
          <mxGeometry relative="1" as="geometry">
            <mxPoint x="270" y="445" as="sourcePoint" />
            <mxPoint x="430" y="445" as="targetPoint" />
            <Array as="points">
              <mxPoint x="90" y="565" />
              <mxPoint x="385" y="565" />
            </Array>
          </mxGeometry>
        </mxCell>
        <mxCell id="d1Pyevz_ncs2XS0bNi1m-41" value="" style="endArrow=none;html=1;rounded=0;exitX=0.75;exitY=0;exitDx=0;exitDy=0;entryX=0.25;entryY=0;entryDx=0;entryDy=0;" parent="1" source="d1Pyevz_ncs2XS0bNi1m-16" target="d1Pyevz_ncs2XS0bNi1m-20" edge="1">
          <mxGeometry relative="1" as="geometry">
            <mxPoint x="480" y="455" as="sourcePoint" />
            <mxPoint x="410" y="385" as="targetPoint" />
            <Array as="points">
              <mxPoint x="465" y="445" />
              <mxPoint x="725" y="445" />
            </Array>
          </mxGeometry>
        </mxCell>
        <mxCell id="d1Pyevz_ncs2XS0bNi1m-42" value="" style="endArrow=none;html=1;rounded=0;exitX=1.004;exitY=0.057;exitDx=0;exitDy=0;exitPerimeter=0;entryX=0;entryY=0.5;entryDx=0;entryDy=0;" parent="1" source="d1Pyevz_ncs2XS0bNi1m-17" target="d1Pyevz_ncs2XS0bNi1m-28" edge="1">
          <mxGeometry relative="1" as="geometry">
            <mxPoint x="490" y="445" as="sourcePoint" />
            <mxPoint x="650" y="445" as="targetPoint" />
          </mxGeometry>
        </mxCell>
        <mxCell id="d1Pyevz_ncs2XS0bNi1m-43" value="" style="line;strokeWidth=1;rotatable=0;dashed=0;labelPosition=right;align=left;verticalAlign=middle;spacingTop=0;spacingLeft=6;points=[];portConstraint=eastwest;" parent="1" vertex="1">
          <mxGeometry x="640" y="480" width="60" height="10" as="geometry" />
        </mxCell>
        <mxCell id="d1Pyevz_ncs2XS0bNi1m-44" value="" style="endArrow=none;html=1;rounded=0;exitX=0.755;exitY=0.984;exitDx=0;exitDy=0;exitPerimeter=0;entryX=0.25;entryY=1;entryDx=0;entryDy=0;" parent="1" source="d1Pyevz_ncs2XS0bNi1m-17" target="d1Pyevz_ncs2XS0bNi1m-20" edge="1">
          <mxGeometry relative="1" as="geometry">
            <mxPoint x="550" y="455" as="sourcePoint" />
            <mxPoint x="710" y="455" as="targetPoint" />
            <Array as="points">
              <mxPoint x="466" y="525" />
              <mxPoint x="725" y="525" />
            </Array>
          </mxGeometry>
        </mxCell>
        <mxCell id="d1Pyevz_ncs2XS0bNi1m-45" value="" style="endArrow=none;html=1;rounded=0;entryX=0.25;entryY=0;entryDx=0;entryDy=0;exitX=0.468;exitY=0.984;exitDx=0;exitDy=0;exitPerimeter=0;" parent="1" source="d1Pyevz_ncs2XS0bNi1m-31" target="d1Pyevz_ncs2XS0bNi1m-21" edge="1">
          <mxGeometry relative="1" as="geometry">
            <mxPoint x="460" y="645" as="sourcePoint" />
            <mxPoint x="550" y="485" as="targetPoint" />
          </mxGeometry>
        </mxCell>
        <mxCell id="d1Pyevz_ncs2XS0bNi1m-46" value="" style="endArrow=none;html=1;rounded=0;exitX=0.457;exitY=0.039;exitDx=0;exitDy=0;exitPerimeter=0;entryX=0.338;entryY=1.002;entryDx=0;entryDy=0;entryPerimeter=0;" parent="1" source="d1Pyevz_ncs2XS0bNi1m-31" target="d1Pyevz_ncs2XS0bNi1m-17" edge="1">
          <mxGeometry relative="1" as="geometry">
            <mxPoint x="340" y="575" as="sourcePoint" />
            <mxPoint x="399" y="515" as="targetPoint" />
          </mxGeometry>
        </mxCell>
        <mxCell id="d1Pyevz_ncs2XS0bNi1m-47" value="" style="endArrow=none;html=1;rounded=0;exitX=0.119;exitY=0.027;exitDx=0;exitDy=0;exitPerimeter=0;entryX=0.66;entryY=1.009;entryDx=0;entryDy=0;entryPerimeter=0;" parent="1" source="d1Pyevz_ncs2XS0bNi1m-32" target="d1Pyevz_ncs2XS0bNi1m-17" edge="1">
          <mxGeometry relative="1" as="geometry">
            <mxPoint x="461" y="590.8199999999999" as="sourcePoint" />
            <mxPoint x="459.72" y="513" as="targetPoint" />
          </mxGeometry>
        </mxCell>
        <mxCell id="d1Pyevz_ncs2XS0bNi1m-48" value="" style="endArrow=none;html=1;rounded=0;exitX=0.108;exitY=0.951;exitDx=0;exitDy=0;exitPerimeter=0;entryX=0.75;entryY=0;entryDx=0;entryDy=0;" parent="1" source="d1Pyevz_ncs2XS0bNi1m-32" target="d1Pyevz_ncs2XS0bNi1m-21" edge="1">
          <mxGeometry relative="1" as="geometry">
            <mxPoint x="420" y="635" as="sourcePoint" />
            <mxPoint x="580" y="635" as="targetPoint" />
          </mxGeometry>
        </mxCell>
      </root>
    </mxGraphModel>
  </diagram>
</mxfile>
